<svg width="433" height="49" viewBox="0 0 433 49" version="1.1" xmlns="http://www.w3.org/2000/svg" xmlns:xlink="http://www.w3.org/1999/xlink" xmlns:figma="http://www.figma.com/figma/ns">
<title>PostmatesDash</title>
<desc>Created using Figma</desc>
<g id="Canvas" transform="translate(223 378)" figma:type="canvas">
<g id="PostmatesDash" style="mix-blend-mode:normal;" figma:type="text">
<use xlink:href="#path0_fill" transform="translate(-229 -389)" fill="#008000" style="mix-blend-mode:normal;"/>
</g>
</g>
<defs>
<path id="path0_fill" d="M 7.9375 39.7812L 7.9375 59L 6.25 59L 6.25 13.5L 20.4688 13.5C 25.1146 13.5 28.7188 14.6771 31.2812 17.0312C 33.8646 19.3646 35.1562 22.6146 35.1562 26.7812C 35.1562 30.9062 33.8958 34.0938 31.375 36.3438C 28.875 38.5938 25.3125 39.7396 20.6875 39.7812L 7.9375 39.7812ZM 7.9375 38.0938L 20.4688 38.0938C 24.5729 38.0938 27.7604 37.1042 30.0312 35.125C 32.3229 33.1458 33.4688 30.3854 33.4688 26.8438C 33.4688 23.1771 32.3229 20.3229 30.0312 18.2812C 27.7604 16.2188 24.5729 15.1875 20.4688 15.1875L 7.9375 15.1875L 7.9375 38.0938ZM 40.875 41.4375C 40.875 38.2083 41.4896 35.3125 42.7188 32.75C 43.9688 30.1667 45.7188 28.1562 47.9688 26.7188C 50.2396 25.2812 52.8021 24.5625 55.6562 24.5625C 58.4896 24.5625 61.0312 25.2604 63.2812 26.6562C 65.5312 28.0521 67.2812 30.0312 68.5312 32.5938C 69.8021 35.1562 70.4479 38.0417 70.4688 41.25L 70.4688 42.75C 70.4688 46 69.8542 48.9062 68.625 51.4688C 67.3958 54.0312 65.6458 56.0312 63.375 57.4688C 61.125 58.9062 58.5729 59.625 55.7188 59.625C 52.8646 59.625 50.3021 58.9167 48.0312 57.5C 45.7812 56.0833 44.0312 54.1042 42.7812 51.5625C 41.5312 49 40.8958 46.125 40.875 42.9375L 40.875 41.4375ZM 42.5625 42.75C 42.5625 45.5625 43.1146 48.1458 44.2188 50.5C 45.3438 52.8333 46.8958 54.6562 48.875 55.9688C 50.875 57.2812 53.1562 57.9375 55.7188 57.9375C 59.5729 57.9375 62.7083 56.4896 65.125 53.5938C 67.5625 50.6979 68.7812 46.9688 68.7812 42.4062L 68.7812 41.4375C 68.7812 38.6667 68.2188 36.1042 67.0938 33.75C 65.9688 31.3958 64.4062 29.5625 62.4062 28.25C 60.4271 26.9167 58.1771 26.25 55.6562 26.25C 51.8021 26.25 48.6562 27.7188 46.2188 30.6562C 43.7812 33.5938 42.5625 37.2917 42.5625 41.75L 42.5625 42.75ZM 99.5312 50.7188C 99.5312 46.6146 96.0312 43.8229 89.0312 42.3438C 84.8229 41.4479 81.8958 40.3021 80.25 38.9062C 78.6042 37.4896 77.7812 35.5521 77.7812 33.0938C 77.7812 30.6146 78.8229 28.5729 80.9062 26.9688C 83.0104 25.3646 85.7396 24.5625 89.0938 24.5625C 92.7396 24.5625 95.6667 25.4375 97.875 27.1875C 100.083 28.9167 101.188 31.2604 101.188 34.2188L 99.4688 34.2188C 99.4688 31.9479 98.5104 30.0521 96.5938 28.5312C 94.6771 27.0104 92.1771 26.25 89.0938 26.25C 86.1354 26.25 83.7917 26.8958 82.0625 28.1875C 80.3333 29.4792 79.4688 31.0938 79.4688 33.0312C 79.4688 34.5521 79.7917 35.75 80.4375 36.625C 81.0833 37.4792 82.1354 38.2604 83.5938 38.9688C 85.0521 39.6562 87.1771 40.3229 89.9688 40.9688C 92.7604 41.6146 94.9688 42.375 96.5938 43.25C 98.2188 44.125 99.3958 45.1667 100.125 46.375C 100.854 47.5625 101.219 49.0208 101.219 50.75C 101.219 53.4167 100.125 55.5625 97.9375 57.1875C 95.75 58.8125 92.8854 59.625 89.3438 59.625C 85.5521 59.625 82.4896 58.7708 80.1562 57.0625C 77.8438 55.3333 76.6875 53.1146 76.6875 50.4062L 78.375 50.4062C 78.5417 52.7812 79.5833 54.6354 81.5 55.9688C 83.4375 57.2812 86.0521 57.9375 89.3438 57.9375C 92.3646 57.9375 94.8125 57.2396 96.6875 55.8438C 98.5833 54.4271 99.5312 52.7188 99.5312 50.7188ZM 114.344 16.0625L 114.344 25.1875L 122.031 25.1875L 122.031 26.9062L 114.344 26.9062L 114.344 50.9062C 114.344 53.3021 114.729 55.0729 115.5 56.2188C 116.292 57.3646 117.604 57.9375 119.438 57.9375C 120.354 57.9375 121.469 57.8438 122.781 57.6562L 123.062 59.25C 122.375 59.5 121.198 59.625 119.531 59.625C 117.073 59.625 115.312 58.9479 114.25 57.5938C 113.188 56.2188 112.646 54.0625 112.625 51.125L 112.625 26.9062L 106.375 26.9062L 106.375 25.1875L 112.625 25.1875L 112.625 16.0625L 114.344 16.0625ZM 155 59L 153.312 59L 153.312 36.2812C 153.292 32.8854 152.542 30.3646 151.062 28.7188C 149.604 27.0521 147.271 26.2188 144.062 26.2188C 140.354 26.2188 137.323 27.8542 134.969 31.125C 133.573 33.0833 132.646 35.25 132.188 37.625L 132.188 59L 130.469 59L 130.469 25.1875L 132.188 25.1875L 132.188 33.1875C 133.333 30.4375 134.969 28.3125 137.094 26.8125C 139.219 25.3125 141.573 24.5625 144.156 24.5625C 146.99 24.5625 149.302 25.1875 151.094 26.4375C 152.906 27.6875 154.094 29.7292 154.656 32.5625C 155.656 30.125 157.281 28.1875 159.531 26.75C 161.781 25.2917 164.302 24.5625 167.094 24.5625C 170.74 24.5625 173.448 25.5938 175.219 27.6562C 177.01 29.7188 177.917 32.8125 177.938 36.9375L 177.938 59L 176.25 59L 176.25 37.0625C 176.25 33.3542 175.5 30.6146 174 28.8438C 172.521 27.0521 170.188 26.1771 167 26.2188C 162.896 26.2812 159.646 27.9167 157.25 31.125C 155.875 32.9792 155.125 34.7708 155 36.5L 155 59ZM 210.031 59C 209.615 57.5625 209.406 55.5 209.406 52.8125C 208.073 54.9792 206.25 56.6562 203.938 57.8438C 201.625 59.0312 199.01 59.625 196.094 59.625C 192.969 59.625 190.448 58.7812 188.531 57.0938C 186.635 55.3854 185.688 53.1667 185.688 50.4375C 185.688 47.3333 187.083 44.8542 189.875 43C 192.688 41.125 196.417 40.1667 201.062 40.125L 209.406 40.125L 209.406 35.1875C 209.406 32.3542 208.51 30.1562 206.719 28.5938C 204.948 27.0312 202.406 26.25 199.094 26.25C 196.01 26.25 193.438 27.0417 191.375 28.625C 189.312 30.2083 188.281 32.1667 188.281 34.5L 186.594 34.4375C 186.594 31.6875 187.802 29.3542 190.219 27.4375C 192.635 25.5208 195.594 24.5625 199.094 24.5625C 202.74 24.5625 205.635 25.4792 207.781 27.3125C 209.927 29.125 211.031 31.6875 211.094 35L 211.094 51.1562C 211.094 54.8646 211.385 57.3854 211.969 58.7188L 211.969 59L 210.031 59ZM 196.094 57.9688C 199.26 57.9688 201.979 57.2604 204.25 55.8438C 206.542 54.4271 208.26 52.4375 209.406 49.875L 209.406 41.8438L 201.594 41.8438C 196.76 41.8438 193.062 42.8021 190.5 44.7188C 188.417 46.2812 187.375 48.2292 187.375 50.5625C 187.375 52.625 188.198 54.375 189.844 55.8125C 191.49 57.25 193.573 57.9688 196.094 57.9688ZM 225.781 16.0625L 225.781 25.1875L 233.469 25.1875L 233.469 26.9062L 225.781 26.9062L 225.781 50.9062C 225.781 53.3021 226.167 55.0729 226.938 56.2188C 227.729 57.3646 229.042 57.9375 230.875 57.9375C 231.792 57.9375 232.906 57.8438 234.219 57.6562L 234.5 59.25C 233.812 59.5 232.635 59.625 230.969 59.625C 228.51 59.625 226.75 58.9479 225.688 57.5938C 224.625 56.2188 224.083 54.0625 224.062 51.125L 224.062 26.9062L 217.812 26.9062L 217.812 25.1875L 224.062 25.1875L 224.062 16.0625L 225.781 16.0625ZM 254.406 59.625C 251.677 59.625 249.167 58.8958 246.875 57.4375C 244.604 55.9583 242.823 53.9375 241.531 51.375C 240.24 48.8125 239.594 45.9688 239.594 42.8438L 239.594 41.4375C 239.594 38.3125 240.219 35.4479 241.469 32.8438C 242.719 30.2396 244.438 28.2083 246.625 26.75C 248.812 25.2917 251.198 24.5625 253.781 24.5625C 257.552 24.5625 260.635 25.9062 263.031 28.5938C 265.427 31.2812 266.625 34.8125 266.625 39.1875L 266.625 40.9688L 241.281 40.9688L 241.281 42.8125C 241.281 45.5625 241.854 48.1146 243 50.4688C 244.167 52.8021 245.76 54.6354 247.781 55.9688C 249.823 57.3021 252.031 57.9688 254.406 57.9688C 256.677 57.9688 258.604 57.5938 260.188 56.8438C 261.792 56.0729 263.208 54.8958 264.438 53.3125L 265.625 54.1562C 263.104 57.8021 259.365 59.625 254.406 59.625ZM 253.781 26.25C 250.49 26.25 247.698 27.4792 245.406 29.9375C 243.115 32.375 241.771 35.4896 241.375 39.2812L 264.938 39.2812L 264.938 38.875C 264.938 36.5833 264.448 34.4583 263.469 32.5C 262.51 30.5208 261.177 28.9896 259.469 27.9062C 257.781 26.8021 255.885 26.25 253.781 26.25ZM 295.344 50.7188C 295.344 46.6146 291.844 43.8229 284.844 42.3438C 280.635 41.4479 277.708 40.3021 276.062 38.9062C 274.417 37.4896 273.594 35.5521 273.594 33.0938C 273.594 30.6146 274.635 28.5729 276.719 26.9688C 278.823 25.3646 281.552 24.5625 284.906 24.5625C 288.552 24.5625 291.479 25.4375 293.688 27.1875C 295.896 28.9167 297 31.2604 297 34.2188L 295.281 34.2188C 295.281 31.9479 294.323 30.0521 292.406 28.5312C 290.49 27.0104 287.99 26.25 284.906 26.25C 281.948 26.25 279.604 26.8958 277.875 28.1875C 276.146 29.4792 275.281 31.0938 275.281 33.0312C 275.281 34.5521 275.604 35.75 276.25 36.625C 276.896 37.4792 277.948 38.2604 279.406 38.9688C 280.865 39.6562 282.99 40.3229 285.781 40.9688C 288.573 41.6146 290.781 42.375 292.406 43.25C 294.031 44.125 295.208 45.1667 295.938 46.375C 296.667 47.5625 297.031 49.0208 297.031 50.75C 297.031 53.4167 295.938 55.5625 293.75 57.1875C 291.562 58.8125 288.698 59.625 285.156 59.625C 281.365 59.625 278.302 58.7708 275.969 57.0625C 273.656 55.3333 272.5 53.1146 272.5 50.4062L 274.188 50.4062C 274.354 52.7812 275.396 54.6354 277.312 55.9688C 279.25 57.2812 281.865 57.9375 285.156 57.9375C 288.177 57.9375 290.625 57.2396 292.5 55.8438C 294.396 54.4271 295.344 52.7188 295.344 50.7188ZM 307.25 59L 307.25 13.5L 319.844 13.5C 323.365 13.5 326.552 14.3333 329.406 16C 332.26 17.6667 334.5 20.0104 336.125 23.0312C 337.75 26.0312 338.583 29.3958 338.625 33.125L 338.625 39.0312C 338.625 42.8229 337.823 46.2396 336.219 49.2812C 334.635 52.3229 332.417 54.6979 329.562 56.4062C 326.708 58.1146 323.521 58.9792 320 59L 307.25 59ZM 308.938 15.1875L 308.938 57.3125L 319.844 57.3125C 323.031 57.3125 325.927 56.5417 328.531 55C 331.156 53.4375 333.208 51.2708 334.688 48.5C 336.167 45.7083 336.917 42.6146 336.938 39.2188L 336.938 33.375C 336.938 29.9792 336.208 26.8958 334.75 24.125C 333.312 21.3542 331.292 19.1875 328.688 17.625C 326.104 16.0417 323.24 15.2292 320.094 15.1875L 308.938 15.1875ZM 370.094 59C 369.677 57.5625 369.469 55.5 369.469 52.8125C 368.135 54.9792 366.312 56.6562 364 57.8438C 361.688 59.0312 359.073 59.625 356.156 59.625C 353.031 59.625 350.51 58.7812 348.594 57.0938C 346.698 55.3854 345.75 53.1667 345.75 50.4375C 345.75 47.3333 347.146 44.8542 349.938 43C 352.75 41.125 356.479 40.1667 361.125 40.125L 369.469 40.125L 369.469 35.1875C 369.469 32.3542 368.573 30.1562 366.781 28.5938C 365.01 27.0312 362.469 26.25 359.156 26.25C 356.073 26.25 353.5 27.0417 351.438 28.625C 349.375 30.2083 348.344 32.1667 348.344 34.5L 346.656 34.4375C 346.656 31.6875 347.865 29.3542 350.281 27.4375C 352.698 25.5208 355.656 24.5625 359.156 24.5625C 362.802 24.5625 365.698 25.4792 367.844 27.3125C 369.99 29.125 371.094 31.6875 371.156 35L 371.156 51.1562C 371.156 54.8646 371.448 57.3854 372.031 58.7188L 372.031 59L 370.094 59ZM 356.156 57.9688C 359.323 57.9688 362.042 57.2604 364.312 55.8438C 366.604 54.4271 368.323 52.4375 369.469 49.875L 369.469 41.8438L 361.656 41.8438C 356.823 41.8438 353.125 42.8021 350.562 44.7188C 348.479 46.2812 347.438 48.2292 347.438 50.5625C 347.438 52.625 348.26 54.375 349.906 55.8125C 351.552 57.25 353.635 57.9688 356.156 57.9688ZM 402.906 50.7188C 402.906 46.6146 399.406 43.8229 392.406 42.3438C 388.198 41.4479 385.271 40.3021 383.625 38.9062C 381.979 37.4896 381.156 35.5521 381.156 33.0938C 381.156 30.6146 382.198 28.5729 384.281 26.9688C 386.385 25.3646 389.115 24.5625 392.469 24.5625C 396.115 24.5625 399.042 25.4375 401.25 27.1875C 403.458 28.9167 404.562 31.2604 404.562 34.2188L 402.844 34.2188C 402.844 31.9479 401.885 30.0521 399.969 28.5312C 398.052 27.0104 395.552 26.25 392.469 26.25C 389.51 26.25 387.167 26.8958 385.438 28.1875C 383.708 29.4792 382.844 31.0938 382.844 33.0312C 382.844 34.5521 383.167 35.75 383.812 36.625C 384.458 37.4792 385.51 38.2604 386.969 38.9688C 388.427 39.6562 390.552 40.3229 393.344 40.9688C 396.135 41.6146 398.344 42.375 399.969 43.25C 401.594 44.125 402.771 45.1667 403.5 46.375C 404.229 47.5625 404.594 49.0208 404.594 50.75C 404.594 53.4167 403.5 55.5625 401.312 57.1875C 399.125 58.8125 396.26 59.625 392.719 59.625C 388.927 59.625 385.865 58.7708 383.531 57.0625C 381.219 55.3333 380.062 53.1146 380.062 50.4062L 381.75 50.4062C 381.917 52.7812 382.958 54.6354 384.875 55.9688C 386.812 57.2812 389.427 57.9375 392.719 57.9375C 395.74 57.9375 398.188 57.2396 400.062 55.8438C 401.958 54.4271 402.906 52.7188 402.906 50.7188ZM 415.625 33.0625C 416.729 30.4375 418.354 28.3646 420.5 26.8438C 422.646 25.3229 425.021 24.5625 427.625 24.5625C 431.25 24.5625 433.938 25.5938 435.688 27.6562C 437.458 29.6979 438.354 32.7917 438.375 36.9375L 438.375 59L 436.688 59L 436.688 36.875C 436.667 33.25 435.927 30.5729 434.469 28.8438C 433.01 27.0938 430.698 26.2188 427.531 26.2188C 424.615 26.2188 422.083 27.2604 419.938 29.3438C 417.812 31.4062 416.375 34.0729 415.625 37.3438L 415.625 59L 413.938 59L 413.938 11L 415.625 11L 415.625 33.0625Z"/>
</defs>
</svg>
